<svg xmlns="http://www.w3.org/2000/svg" xmlns:xlink="http://www.w3.org/1999/xlink" width="50" height="50" viewBox="0 0 50 50"><defs><path id="fuota" d="M164 1829c0-13.807 11.193-25 25-25s25 11.193 25 25-11.193 25-25 25-25-11.193-25-25z"/><path id="fuotc" d="M189.863 1821.934v11.895l4.397-4.476a.872.872 0 0 1 .655-.29.96.96 0 0 1 .666.259c.19.173.286.383.286.632s-.085.47-.254.663l-6.003 6.093a.883.883 0 0 1-.666.29.883.883 0 0 1-.666-.29l-6.024-6.134a.88.88 0 0 1-.254-.622c0-.262.099-.484.296-.663a.868.868 0 0 1 .655-.26c.254.008.472.101.655.28l4.397 4.477v-11.875a.88.88 0 0 1 .254-.621.885.885 0 0 1 .613-.29c.268-.014.5.072.697.258a.894.894 0 0 1 .296.674z"/><clipPath id="fuotb"><use fill="#fff" xlink:href="#fuota"/></clipPath></defs><g><g transform="rotate(90 1009 845)"><g><use fill="#fff" xlink:href="#fuota"/><use fill="#fff" fill-opacity="0" stroke="#353535" stroke-miterlimit="50" stroke-width="4" clip-path="url(&quot;#fuotb&quot;)" xlink:href="#fuota"/></g><g><use fill="#353535" xlink:href="#fuotc"/></g></g></g></svg>