<svg xmlns="http://www.w3.org/2000/svg" xmlns:xlink="http://www.w3.org/1999/xlink" width="50" height="50" viewBox="0 0 50 50"><defs><path id="jm1sa" d="M1250 337a25 25 0 1 1 50 0 25 25 0 0 1-50 0z"/><path id="jm1sc" d="M1275.86 329.93v11.9l4.4-4.48c.18-.19.4-.29.66-.29.25 0 .47.09.66.26.2.17.29.39.29.63 0 .25-.09.47-.26.67l-6 6.09c-.18.2-.4.29-.67.29a.88.88 0 0 1-.66-.29l-6.03-6.13a.88.88 0 0 1-.25-.63c0-.26.1-.48.3-.66.18-.18.4-.27.65-.26.25 0 .47.1.66.28l4.4 4.48V329.9c0-.23.08-.44.25-.62a.9.9 0 0 1 1.31-.03c.2.19.3.41.3.67z"/><clipPath id="jm1sb"><use fill="#fff" xlink:href="#jm1sa"/></clipPath></defs><g><g transform="matrix(1 0 0 -1 -1250 362)"><g opacity=".2"><use fill="#fff" fill-opacity="0" stroke="#fff" stroke-miterlimit="50" stroke-width="4" clip-path="url(&quot;#jm1sb&quot;)" xlink:href="#jm1sa"/></g><g opacity=".2"><use fill="#fff" xlink:href="#jm1sc"/></g></g></g></svg>