<?xml version="1.0" encoding="UTF-8"?>
<svg width="50px" height="50px" viewBox="0 0 50 50" version="1.1" xmlns="http://www.w3.org/2000/svg" xmlns:xlink="http://www.w3.org/1999/xlink">
    <!-- Generator: Sketch 52.6 (67491) - http://www.bohemiancoding.com/sketch -->
    <title>Group 2 Copy</title>
    <desc>Created with Sketch.</desc>
    <g id="Page-1" stroke="none" stroke-width="1" fill="none" fill-rule="evenodd">
        <g id="О-нас-XL" transform="translate(-305.000000, -1804.000000)">
            <g id="Group-4" transform="translate(164.000000, 1514.000000)">
                <g id="Group" transform="translate(0.000000, 5.000000)">
                    <g id="Group-12" transform="translate(0.000000, 285.000000)">
                        <g id="Group-2-Copy" transform="translate(166.000000, 25.000000) scale(-1, 1) rotate(90.000000) translate(-166.000000, -25.000000) translate(141.000000, 0.000000)">
                            <circle id="Oval" stroke="#353535" stroke-width="2" fill="#FFFFFF" fill-rule="nonzero" cx="25" cy="25" r="24"></circle>
                            <path d="M25.8634146,17.9339884 L25.8634146,29.8292988 L30.2601626,25.3530148 C30.4433613,25.1595941 30.6617873,25.0628852 30.9154472,25.0628852 C31.169107,25.0628852 31.391056,25.1492324 31.5813008,25.3219294 C31.7715457,25.4946265 31.8666667,25.7053136 31.8666667,25.9539973 C31.8666667,26.202681 31.7821147,26.4237299 31.6130081,26.6171505 L25.6097561,32.7098705 C25.4265573,32.9032911 25.2046083,33 24.9439024,33 C24.6831965,33 24.4612475,32.9032911 24.2780488,32.7098705 L18.2536585,26.5757034 C18.084552,26.3960986 18,26.1888653 18,25.9539973 C18,25.6914979 18.098644,25.470449 18.295935,25.2908441 C18.4791337,25.1112393 18.6975597,25.024892 18.9512195,25.0317999 C19.2048793,25.0387078 19.4233053,25.1319628 19.6065041,25.3115677 L24.003252,29.7878517 L24.003252,17.9132649 C24.003252,17.6783969 24.087804,17.4711636 24.2569106,17.2915588 C24.4260171,17.1119539 24.6303511,17.015245 24.8699187,17.0014292 C25.1376707,16.9876135 25.3701887,17.0739607 25.5674797,17.2604735 C25.7647706,17.4469862 25.8634146,17.671489 25.8634146,17.9339884 Z" id="arrow-down---anticon" fill="#353535"></path>
                        </g>
                    </g>
                </g>
            </g>
        </g>
    </g>
</svg>