<svg xmlns="http://www.w3.org/2000/svg" xmlns:xlink="http://www.w3.org/1999/xlink" width="73" height="44" viewBox="0 0 73 44"><defs><path id="yr47a" d="M1321.444 583.544c.912-.912.912-1.824 0-2.736l-15.285-16.87h65.016c1.217 0 1.825-.608 1.825-1.824 0-1.216-.608-1.824-1.825-1.824h-65.016l15.285-16.87c.912-.912.912-1.824 0-2.736-.913-.912-1.825-.912-2.738 0-12.014 13.223-18.098 19.91-18.25 20.062-.304.304-.456.76-.456 1.368 0 .608.152 1.064.456 1.368l18.25 20.062c.304.304.76.456 1.369.456.608 0 1.065-.152 1.369-.456z"/></defs><g><g transform="translate(-1300 -540)"><use fill="#fff" xlink:href="#yr47a"/></g></g></svg>