<svg xmlns="http://www.w3.org/2000/svg" viewBox="0 0 112.68 33.12">
  <defs>
    <style>
      .cls-1 {
        fill: #353535;
      }

      .cls-2 {
        fill: #f39c05;
      }
    </style>
  </defs>
  <title>Logo her</title>
  <g id="Слой_2" data-name="Слой 2">
    <g id="Слой_1-2" data-name="Слой 1">
      <rect class="cls-1" y="7.05" width="11.72" height="26.07"/>
      <polygon class="cls-2" points="45.32 3.9 41.98 3.9 40.68 1.42 42.87 0 45.32 3.9"/>
      <polygon class="cls-2" points="35.06 3.9 31.73 3.9 30.43 1.42 32.62 0 35.06 3.9"/>
      <g>
        <polygon class="cls-1" points="25.29 29.99 25.29 7.05 22.21 7.05 22.21 17.67 11.22 17.67 11.22 20.32 22.21 20.32 22.21 29.99 25.29 29.99"/>
        <rect class="cls-1" x="8.58" y="7.05" width="3.14" height="19.8"/>
      </g>
      <path class="cls-1" d="M43.66,25.5A9.78,9.78,0,0,0,46,23.28a10,10,0,0,0,1.53-2.92A10.68,10.68,0,0,0,48.09,17a10.45,10.45,0,0,0-.75-4,10.08,10.08,0,0,0-2.08-3.23,10.22,10.22,0,0,0-3.14-2.18,9.88,9.88,0,0,0-7.79,0A9.82,9.82,0,0,0,29.1,13a10.83,10.83,0,0,0,0,7.92,10.13,10.13,0,0,0,2.09,3.25A9.61,9.61,0,0,0,37.6,27.1V24.43a5.85,5.85,0,0,1-2.13-.57,6.74,6.74,0,0,1-2.15-1.62,7.55,7.55,0,0,1-1.42-2.4,8.6,8.6,0,0,1,0-5.78,7.55,7.55,0,0,1,1.42-2.4A6.74,6.74,0,0,1,35.47,10,6.6,6.6,0,0,1,41,10a6.48,6.48,0,0,1,2.14,1.63,7.65,7.65,0,0,1,1.4,2.39,8.67,8.67,0,0,1,.05,5.66,7.6,7.6,0,0,1-1.28,2.33,7,7,0,0,1-2,1.66,6.59,6.59,0,0,1-1.22.57l1.2,2.36A8.32,8.32,0,0,0,43.66,25.5Z"/>
      <path class="cls-1" d="M62.91,20a6.75,6.75,0,0,0,2.82-2.43,6.47,6.47,0,0,0,1.09-3.68,6.61,6.61,0,0,0-.54-2.65,6.9,6.9,0,0,0-1.46-2.18,7.07,7.07,0,0,0-2.16-1.47A6.53,6.53,0,0,0,60,7.05h-8.9v19.8h3V20.62h.62l3.39,0q1.29,0,2.16,0a7.88,7.88,0,0,0,1.39-.18A7,7,0,0,0,62.91,20ZM60,17.67H54.13V9.5H60a3.37,3.37,0,0,1,1.53.35,4.11,4.11,0,0,1,1.21.9A4.87,4.87,0,0,1,63.59,12a4,4,0,0,1,.3,1.52,4.11,4.11,0,0,1-1.11,3A3.75,3.75,0,0,1,60,17.67Z"/>
      <polygon class="cls-1" points="66.87 26.85 64.36 22.48 61.52 23.32 63.31 26.85 66.87 26.85"/>
      <path class="cls-1" d="M78.33,26.85a9.59,9.59,0,0,0,3.84-.78A9.87,9.87,0,0,0,85.33,24a10,10,0,0,0,2.12-3.16,9.84,9.84,0,0,0,0-7.68A10,10,0,0,0,85.33,10a9.87,9.87,0,0,0-3.16-2.12,9.59,9.59,0,0,0-3.84-.78h-8.4v19.8h3V9.47h5.44a6.47,6.47,0,0,1,2.71.58,6.75,6.75,0,0,1,2.21,1.59A7.27,7.27,0,0,1,84.73,14,8,8,0,0,1,85.27,17a8.12,8.12,0,0,1-.54,3,7.6,7.6,0,0,1-1.48,2.38A6.59,6.59,0,0,1,81,23.87a6.73,6.73,0,0,1-2.7.56H75.65L77,26.85Z"/>
      <rect class="cls-1" x="91.29" y="7.05" width="3.14" height="19.8"/>
      <path class="cls-1" d="M106.85,19l-2.69-.81c-2.61-.73-3.38-2-3.38-3.85A4.48,4.48,0,0,1,105.44,10a5.51,5.51,0,0,1,3.83,1.76l2.32-1.92A8.54,8.54,0,0,0,105.44,7a7.48,7.48,0,0,0-7.67,7.25c0,3.83,3,6,5.58,6.75.47.13,2.23.67,2.64.79,2.67.79,3.68,2.55,3.68,4,0,2.86-1.8,4.19-4.75,4.19H8.58v3.13h96.34c4.89,0,7.76-3,7.76-7.32C112.68,22.11,109.56,19.76,106.85,19Z"/>
      <polygon class="cls-2" points="8.58 29.99 0 33.13 0 7.05 8.57 9.33 8.58 29.99"/>
      <polygon class="cls-1" points="6.07 19.16 5.9 18.86 7.52 18.86 7.52 19.16 6.07 19.16"/>
      <rect class="cls-2" x="11.72" y="20.32" width="10.49" height="6.53"/>
      <g>
        <rect class="cls-1" x="11.72" y="21.76" width="10.49" height="0.19"/>
        <rect class="cls-1" x="11.72" y="23.39" width="10.49" height="0.19"/>
        <rect class="cls-1" x="11.72" y="25.03" width="10.49" height="0.19"/>
        <rect class="cls-1" x="11.72" y="26.66" width="10.49" height="0.19"/>
      </g>
      <path class="cls-1" d="M12.65,24.2v-.28h-.29v.28a.27.27,0,0,0-.13.21.28.28,0,1,0,.55,0A.24.24,0,0,0,12.65,24.2Z"/>
    </g>
  </g>
</svg>
