<svg xmlns="http://www.w3.org/2000/svg" xmlns:xlink="http://www.w3.org/1999/xlink" width="24" height="24" viewBox="0 0 24 24"><defs><path id="3u5wa" d="M340.636 20.13c-.313.219-.618.457-.914.715-.297.258-.586.527-.868.808a9.62 9.62 0 0 0-.668.727c-.164.203-.27.375-.316.516.031.703.195 1.453.492 2.25.297.796.727 1.644 1.29 2.543a26.04 26.04 0 0 0 2.085 2.836 47.612 47.612 0 0 0 2.883 3.128 47.612 47.612 0 0 0 3.129 2.883 26.043 26.043 0 0 0 2.836 2.086c.898.563 1.75.992 2.555 1.29.804.296 1.558.468 2.261.515.11-.047.266-.156.469-.328.203-.172.445-.399.727-.68.28-.281.546-.574.796-.879.25-.305.493-.613.727-.926a.554.554 0 0 0 .094-.175.253.253 0 0 0 0-.153 94.95 94.95 0 0 0-2.496-1.71c-.758-.5-1.442-.946-2.051-1.337a.742.742 0 0 0-.211.036 1.635 1.635 0 0 0-.258.105c-.125.078-.36.21-.703.398l-1.336.727-.773.469-.774-.516c-.5-.344-1.05-.785-1.652-1.324a50.471 50.471 0 0 1-1.98-1.887 53.68 53.68 0 0 1-1.852-1.98 17.675 17.675 0 0 1-1.313-1.653l-.562-.726.469-.82a134.323 134.323 0 0 1 1.125-2.04c.046-.093.082-.18.105-.257a.742.742 0 0 0 .035-.211c-.547-.86-1.066-1.664-1.558-2.414-.493-.75-.965-1.454-1.418-2.11h-.047a.637.637 0 0 0-.176.024.54.54 0 0 0-.152.07zm1.5-.96c.437.608.918 1.304 1.441 2.085.523.781 1.09 1.648 1.7 2.602.156.25.222.53.198.843-.023.313-.136.649-.34 1.008-.077.156-.21.406-.398.75l-.726 1.336c.328.469.746.992 1.254 1.57a40.21 40.21 0 0 0 1.77 1.875 45.445 45.445 0 0 0 1.886 1.793c.57.508 1.082.926 1.535 1.254.531-.312.973-.566 1.324-.761.352-.196.606-.332.762-.41.187-.11.379-.192.574-.247.195-.054.379-.082.55-.082a1.421 1.421 0 0 1 .727.188c.704.422 1.446.894 2.227 1.418.781.523 1.617 1.097 2.508 1.722.156.11.281.25.375.422.094.172.156.36.187.563a1.97 1.97 0 0 1-.07.668 2.41 2.41 0 0 1-.328.691c-.063.11-.156.242-.281.399-.125.156-.274.335-.446.539-.156.203-.36.433-.61.691-.25.258-.546.543-.89.855a4.843 4.843 0 0 1-.902.704c-.273.156-.512.234-.715.234h-.047c-.812-.031-1.664-.207-2.554-.527-.891-.32-1.829-.778-2.813-1.371-.984-.594-2.016-1.336-3.094-2.227a51.958 51.958 0 0 1-3.375-3.07 46.29 46.29 0 0 1-3.082-3.375 27.88 27.88 0 0 1-2.226-3.094c-.602-.984-1.059-1.926-1.371-2.824-.313-.899-.485-1.746-.516-2.543 0-.219.078-.465.234-.739.157-.273.391-.582.704-.925.312-.344.593-.637.843-.88.25-.241.477-.44.68-.597.187-.14.367-.273.539-.398.172-.125.32-.235.445-.328.172-.125.352-.215.54-.27.187-.055.39-.082.609-.082.25 0 .472.043.668.129.195.086.363.223.504.41z"/></defs><g><g transform="translate(-336 -18)"><use xlink:href="#3u5wa"/></g></g></svg>